<svg xmlns="http://www.w3.org/2000/svg" width="147" height="65" viewBox="0 0 147 65">
    <path fill="#FFF" fill-rule="evenodd" d="M113.999.09h13.564l-1.252 43.442h-11.03L113.999.09zM120.796 65c-3.738 0-6.767-3.034-6.767-6.778 0-3.743 3.03-6.777 6.767-6.777 3.737 0 6.767 3.034 6.767 6.777 0 3.744-3.03 6.778-6.767 6.778zM133.466.09H147l-1.252 43.442h-11.03L133.466.09zM140.233 65c-3.738 0-6.767-3.034-6.767-6.778 0-3.743 3.03-6.777 6.767-6.777 3.737 0 6.767 3.034 6.767 6.777 0 3.744-3.03 6.778-6.767 6.778zm-42.81-33.829h12.67V35.023c-.06 3.702.18 5.135-1.013 8.45C103.416 59.267 85.857 69.389 67.195 63c-8.735-3.016-15.74-9.794-18.87-18.512C40.036 21.498 56.82 0 78.582 0c.566 0 1.133.03 1.818.06.12 0 .239.03.358.03.239.03.477.03.716.06.208.03.387.03.596.059.208.03.447.06.685.09.21.03.388.06.597.09.238.029.447.089.685.119.209.06.388.09.597.119.208.03.447.06.655.12.18.03.388.06.597.119.208.03.417.09.626.15.208.029.417.089.626.148.208.06.387.12.596.18l.626.179.537.179c.238.09.477.15.685.239.09.03.209.09.298.12.626.238 1.252.507 1.938.805.239.12.507.24.775.359.12.03.209.09.328.149.239.12.477.269.716.388l.357.18c.239.119.448.268.686.387.15.06.268.15.388.21.208.149.447.268.655.417.15.09.269.15.388.24.238.119.447.268.656.417.09.06.179.09.238.15 1.342.955 2.624 1.97 3.816 3.105l-9.57 9.584a18.295 18.295 0 0 0-2.742-2.06c-.09-.03-.179-.09-.268-.15-.09-.06-.209-.119-.298-.179-.09-.06-.18-.09-.269-.149-.09-.03-.208-.09-.298-.15-.09-.059-.179-.089-.268-.148-.09-.06-.209-.09-.298-.15-.12-.03-.209-.09-.298-.12-.09-.059-.209-.089-.298-.148-.09-.03-.21-.09-.299-.12-.119-.03-.208-.09-.327-.12-.09-.03-.21-.089-.299-.119-.119-.03-.208-.09-.328-.12-.089-.03-.208-.059-.298-.089-.119-.06-.208-.09-.328-.12-.089-.03-.208-.059-.298-.089-.119-.03-.208-.06-.328-.09-.089-.03-.208-.06-.298-.089-.09-.03-.208-.06-.328-.09-.09 0-.208-.03-.298-.06-.119 0-.238-.03-.357-.059-.09-.03-.18-.03-.299-.06s-.238-.03-.357-.06c-.12-.03-.209-.03-.328-.06-.12-.029-.239-.029-.358-.059-.12 0-.209-.03-.328-.03-.12 0-.238-.03-.358-.03-.596-.06-1.192-.09-1.788-.09-12.998 0-22.925 13.198-17.202 26.962 1.76 4.18 5.128 7.495 9.302 9.226 9.36 3.852 18.423.448 23.223-6.24H78.613v-12.42h18.811zM41.528 33.68h1.7v11.376C43.227 56.013 34.283 65 23.313 65h-1.7C9.72 65 0 55.266 0 43.353V30.216C0 18.333 9.719 8.569 21.613 8.569c.388 0 .746.03 1.252.03.12 0 .239.03.358.03.268.03.507.03.745.06.15.03.298.03.448.06.238.03.447.059.655.089l.448.09c.178.03.387.089.596.119.149.06.328.09.477.12.179.059.387.089.566.149.15.03.328.06.477.119.209.06.388.12.567.18.149.029.328.089.477.148l.536.18c.179.06.328.119.477.179.179.06.328.149.507.209.149.06.298.149.447.209.179.09.328.149.507.239.149.09.298.149.447.238.15.09.328.18.477.27.15.089.298.148.447.238.15.09.328.209.477.299l.03.03c.268.149.507.298.745.477l.03.03c.12.09.268.18.388.269.149.09.298.209.447.328.12.09.268.21.387.299.12.12.269.239.418.358.119.09.238.18.357.299.15.149.269.268.418.388.09.06.149.12.238.209l.537.537.179.18c.12.119.208.238.328.358.357.388.715.806 1.013 1.254l-1.073 1.075-5.396 5.404-1.371 1.373a11.169 11.169 0 0 0-1.371-1.761l-.18-.18c-.178-.179-.357-.328-.536-.507-1.401-1.194-3.07-2.06-4.919-2.419-.03-.03-.06-.03-.09-.03-.118-.03-.208-.03-.327-.06-.06 0-.12-.029-.179-.029a11.99 11.99 0 0 0-1.46-.09c-5.814 0-10.584 4.778-10.584 10.57v13.137c0 5.823 4.77 10.6 10.583 10.6 3.041 0 5.813-1.314 7.751-3.404.12-.12.239-.239.328-.358l.03-.03c.12-.12.209-.239.298-.358l.03-.03c.09-.12.179-.269.268-.388v-.03c.268-.418.537-.836.745-1.284 0-.03 0-.06.03-.09.03-.09.09-.209.15-.328.03-.06.03-.09.059-.15.03-.089.09-.208.12-.298.029-.06.029-.09.059-.15.06-.089.09-.208.12-.298.029-.03.029-.09.059-.15.03-.119.06-.208.09-.328.029-.03.059-.09.059-.149l.09-.358c0-.03.029-.09.029-.12 0-.06.03-.149.03-.209.06-.328.12-.656.149-1.015.03-.298.06-.567.06-.866H21.612V33.68h19.915z"/>
</svg>
