<svg xmlns="http://www.w3.org/2000/svg" width="24" height="24" viewBox="0 0 24 24">
    <path fill="#FFFFFE" fill-rule="evenodd" d="M21 7.657a7.644 7.644 0 0 1-2.121.557 3.577 3.577 0 0 0 1.624-1.956 7.6 7.6 0 0 1-2.345.858A3.767 3.767 0 0 0 15.462 6c-2.04 0-3.693 1.582-3.693 3.534 0 .277.033.547.096.806-3.07-.148-5.79-1.555-7.612-3.693-.318.522-.5 1.13-.5 1.777 0 1.226.652 2.308 1.643 2.942a3.805 3.805 0 0 1-1.673-.443v.045c0 1.712 1.273 3.14 2.962 3.465a3.854 3.854 0 0 1-1.667.061c.47 1.404 1.833 2.426 3.45 2.455A7.623 7.623 0 0 1 3.88 18.46c-.298 0-.592-.016-.881-.049A10.796 10.796 0 0 0 8.66 20c6.794 0 10.508-5.385 10.508-10.056 0-.153-.004-.306-.01-.457A7.336 7.336 0 0 0 21 7.657"/>
</svg>
