<svg xmlns="http://www.w3.org/2000/svg" width="24" height="24" viewBox="0 0 24 24">
    <path fill="#FFFFFE" fill-rule="evenodd" d="M11.771 17.87h1.274s.385-.042.581-.248c.181-.19.175-.545.175-.545s-.025-1.664.768-1.91c.782-.24 1.786 1.61 2.85 2.32.805.539 1.417.42 1.417.42l2.845-.038s1.489-.09.783-1.229c-.058-.093-.411-.843-2.116-2.384-1.784-1.613-1.545-1.352.604-4.141 1.31-1.7 1.832-2.736 1.669-3.18-.156-.424-1.119-.312-1.119-.312l-3.204.02s-.237-.032-.413.07c-.173.1-.283.335-.283.335s-.507 1.315-1.183 2.433c-1.427 2.359-1.998 2.484-2.23 2.337-.543-.341-.408-1.371-.408-2.103 0-2.286.356-3.24-.693-3.486-.348-.082-.605-.136-1.496-.145-1.143-.012-2.11.003-2.658.265-.365.173-.646.56-.474.583.211.027.69.126.945.463.328.435.317 1.412.317 1.412s.189 2.691-.44 3.025c-.432.23-1.025-.239-2.297-2.379-.651-1.096-1.144-2.308-1.144-2.308s-.094-.227-.264-.348c-.205-.147-.492-.193-.492-.193l-3.044.02s-.457.012-.625.205c-.15.172-.012.528-.012.528s2.383 5.43 5.082 8.167c2.475 2.51 5.285 2.345 5.285 2.345"/>
</svg>
